<svg width="241" height="40" viewBox="0 0 241 40" fill="none" xmlns="http://www.w3.org/2000/svg">
<path d="M23.32 7.483C22.711 6.012 21.818 4.676 20.693 3.551C19.568 2.426 18.231 1.533 16.761 0.924C15.289 0.313 13.713 0 12.121 0C11.762 0 11.406 0.021 11.05 0.053C10.944 0.063 10.839 0.076 10.734 0.088C10.472 0.118 10.211 0.157 9.95198 0.204C9.84798 0.223 9.74398 0.24 9.63998 0.262C9.29298 0.335 8.94798 0.417 8.60898 0.52C8.60698 0.52 8.60498 0.52 8.60298 0.522C8.26098 0.626 7.92598 0.749 7.59498 0.883C7.55798 0.898 7.51998 0.908 7.48298 0.923C7.42198 0.948 7.36598 0.981 7.30598 1.007C7.06298 1.112 6.82398 1.226 6.58698 1.347C6.49298 1.395 6.39798 1.442 6.30498 1.493C5.99298 1.664 5.68598 1.844 5.38898 2.042C5.38698 2.043 5.38598 2.044 5.38398 2.045C5.08798 2.243 4.80398 2.458 4.52798 2.68C4.44498 2.747 4.36498 2.817 4.28298 2.886C4.08198 3.057 3.88598 3.234 3.69698 3.417C3.64898 3.463 3.59698 3.503 3.54998 3.55C3.52098 3.579 3.49698 3.611 3.46898 3.64C3.21898 3.895 2.97698 4.156 2.75098 4.432C2.74898 4.435 2.74698 4.437 2.74498 4.44C2.52098 4.713 2.31298 4.999 2.11398 5.291C2.05498 5.378 1.99898 5.467 1.94198 5.556C1.79898 5.778 1.66398 6.004 1.53498 6.234C1.48298 6.327 1.43098 6.419 1.38098 6.513C1.21598 6.828 1.06098 7.148 0.923977 7.478L0.921977 7.482V7.486C0.783977 7.816 0.666977 8.153 0.560977 8.492C0.528977 8.593 0.501977 8.695 0.472977 8.796C0.399977 9.05 0.336977 9.306 0.280977 9.563C0.258977 9.667 0.234977 9.77 0.214977 9.874C0.149977 10.222 0.0939766 10.572 0.0589766 10.924C0.0589766 10.926 0.0589766 10.929 0.0589766 10.931C0.0239766 11.286 0.00997656 11.643 0.00697656 12C0.00697656 12.04 0.000976562 12.08 0.000976562 12.12H0.00797656C0.00797656 12.91 0.0779766 13.702 0.233977 14.485C0.701977 16.836 1.85598 18.996 3.55098 20.691C5.24598 22.386 7.40598 23.54 9.75698 24.008C12.108 24.476 14.545 24.236 16.76 23.318C18.975 22.401 20.868 20.847 22.2 18.854C23.532 16.861 24.243 14.517 24.243 12.12C24.243 10.528 23.93 8.952 23.32 7.481V7.483ZM15.145 14.141C14.746 14.739 14.177 15.205 13.513 15.48C12.848 15.755 12.117 15.827 11.412 15.687C10.706 15.547 10.059 15.2 9.54998 14.692C9.04098 14.183 8.69498 13.536 8.55498 12.83C8.50098 12.556 8.48798 12.279 8.49698 12.003C8.50198 11.844 8.51798 11.686 8.54398 11.529C8.55398 11.467 8.56298 11.405 8.57598 11.343C8.62198 11.134 8.67998 10.927 8.76198 10.729C8.84398 10.53 8.94898 10.343 9.06398 10.163C9.09798 10.11 9.13598 10.06 9.17298 10.009C9.26498 9.88 9.36598 9.758 9.47398 9.642C9.51698 9.596 9.55898 9.549 9.60498 9.505C9.91498 9.207 10.274 8.967 10.667 8.795C10.725 8.77 10.784 8.749 10.843 8.727C10.992 8.671 11.144 8.625 11.299 8.589C11.36 8.575 11.421 8.559 11.483 8.548C11.694 8.51 11.907 8.485 12.122 8.485C12.6 8.485 13.072 8.579 13.514 8.762C13.955 8.945 14.356 9.213 14.694 9.55C15.032 9.888 15.299 10.289 15.482 10.73C15.665 11.171 15.759 11.644 15.759 12.122C15.759 12.841 15.546 13.544 15.146 14.142L15.145 14.141Z" fill="url(#paint0_linear_5083_7840)"></path>
<path d="M22.2001 34.613C23.5321 32.62 24.2431 30.276 24.2431 27.879H15.7581C15.7581 28.598 15.5451 29.301 15.1451 29.899C14.7461 30.497 14.1781 30.963 13.5131 31.238C12.8481 31.513 12.1171 31.585 11.4121 31.445C10.7071 31.305 10.0591 30.958 9.55011 30.45C9.04111 29.941 8.69511 29.294 8.55511 28.588C8.41511 27.882 8.48711 27.151 8.76211 26.487C9.03711 25.823 9.50311 25.255 10.1011 24.855C10.6981 24.456 11.3991 24.243 12.1161 24.242H12.1211V15.757H12.1181C9.72211 15.757 7.37911 16.468 5.38711 17.8C4.45911 18.42 3.62711 19.161 2.91011 20C2.08611 20.964 1.41311 22.056 0.923112 23.24C0.00511158 25.455 -0.234888 27.892 0.233112 30.243C0.701112 32.594 1.85511 34.754 3.55011 36.449C5.24511 38.144 7.40511 39.299 9.75611 39.766C12.1071 40.234 14.5441 39.994 16.7591 39.076C18.9741 38.159 20.8671 36.605 22.1991 34.612L22.2001 34.613Z" fill="url(#paint1_linear_5083_7840)"></path>
<path d="M27.8789 15.758C31.0939 15.758 34.1769 17.035 36.4499 19.308C38.7229 21.581 39.9999 24.664 39.9999 27.879C39.9999 31.094 38.7229 34.177 36.4499 36.45C34.1769 38.723 31.0939 40 27.8789 40V31.515C28.8429 31.515 29.7679 31.132 30.4499 30.45C31.1319 29.768 31.5149 28.843 31.5149 27.879C31.5149 26.915 31.1319 25.99 30.4499 25.308C29.7679 24.626 28.8429 24.243 27.8789 24.243V15.758Z" fill="url(#paint2_linear_5083_7840)"></path>
<path d="M27.8788 40C24.6638 40 21.5808 38.723 19.3078 36.45C17.0348 34.177 15.7578 31.094 15.7578 27.879C15.7578 24.664 17.0348 21.581 19.3078 19.308C21.5808 17.035 24.6638 15.758 27.8788 15.758V24.243C26.9148 24.243 25.9898 24.626 25.3078 25.308C24.6258 25.99 24.2428 26.915 24.2428 27.879C24.2428 28.843 24.6258 29.768 25.3078 30.45C25.9898 31.132 26.9148 31.515 27.8788 31.515V40Z" fill="#1DC2C6"></path>
<path d="M24.2421 12.121H15.7571C15.7571 12.151 15.7571 12.181 15.7561 12.211C15.7451 12.656 15.6521 13.097 15.4801 13.513C15.3881 13.734 15.2761 13.945 15.1441 14.142C15.1271 14.167 15.1101 14.192 15.0931 14.216C14.8371 14.58 14.5141 14.895 14.1411 15.145C13.9421 15.278 13.7311 15.39 13.5121 15.481C13.4841 15.493 13.4561 15.504 13.4281 15.514C13.0131 15.674 12.5701 15.757 12.1201 15.757V24.242C13.7191 24.242 15.2951 23.926 16.7591 23.319C16.8041 23.301 16.8481 23.282 16.8921 23.263C17.5741 22.971 18.2311 22.615 18.8541 22.199C20.1841 21.31 21.3181 20.172 22.1981 18.855C22.2251 18.815 22.2511 18.775 22.2781 18.734C22.6831 18.112 23.0321 17.451 23.3181 16.759C23.9301 15.281 24.2411 13.705 24.2411 12.12L24.2421 12.121Z" fill="#9BE183"></path>
<path d="M15.7578 12.121C15.7578 9.72399 16.4688 7.37999 17.8008 5.38699C19.1328 3.39399 21.0258 1.83999 23.2408 0.922989C25.4548 0.0049895 27.8928 -0.23501 30.2438 0.23299C32.5948 0.70099 34.7548 1.85499 36.4498 3.54999C38.1448 5.24499 39.2998 7.40499 39.7668 9.75599C40.2348 12.107 39.9948 14.544 39.0768 16.759C38.1598 18.974 36.6058 20.867 34.6128 22.199C32.6198 23.531 30.2758 24.242 27.8788 24.242V15.757C28.5978 15.757 29.3008 15.544 29.8988 15.144C30.4968 14.745 30.9628 14.177 31.2378 13.512C31.5128 12.847 31.5848 12.116 31.4448 11.411C31.3048 10.706 30.9578 10.058 30.4498 9.54899C29.9408 9.03999 29.2938 8.69399 28.5878 8.55399C27.8828 8.41399 27.1508 8.48599 26.4868 8.76099C25.8228 9.03599 25.2548 9.50199 24.8548 10.1C24.4548 10.698 24.2418 11.401 24.2418 12.12H15.7568L15.7578 12.121Z" fill="url(#paint3_linear_5083_7840)"></path>
<path d="M60.2386 7.59008L56.4588 25.3728H67.1868L65.9144 31.3591H54.2864C50.1824 31.3591 48.9754 29.2463 49.6865 25.901L53.5786 7.59008H60.2386Z" fill="#0E293E"></path>
<path d="M76.4139 31.8873C70.7979 31.8873 67.4121 27.6617 68.5049 22.5205C69.5902 17.4146 74.7724 13.189 80.3884 13.189C86.0044 13.189 89.3902 17.4146 88.3049 22.5205C87.2121 27.6617 82.0299 31.8873 76.4139 31.8873ZM77.6789 25.9362C79.7309 25.9362 81.4282 24.3868 81.8174 22.5557C82.2141 20.6894 81.1754 19.14 79.1234 19.14C77.0714 19.14 75.3741 20.6894 74.9774 22.5557C74.5882 24.3868 75.6269 25.9362 77.6789 25.9362Z" fill="#0E293E"></path>
<path d="M94.6851 39.9863C90.2211 39.9863 87.3927 38.0496 86.4703 34.5987L92.433 31.7816C92.7546 32.9789 93.5726 34.2113 95.8046 34.2113C98.1446 34.2113 99.9995 32.7676 100.718 30.2322C99.6972 30.9717 98.2094 31.5351 96.1574 31.5351C91.1534 31.5351 87.9223 27.7673 89.045 22.4853C90.1303 17.3794 95.2975 13.2242 100.914 13.2242C106.674 13.2242 109.983 17.1329 108.838 22.5205L107.356 29.4928C106.008 35.8312 100.625 39.9863 94.6851 39.9863ZM98.1784 25.5841C100.122 25.5841 101.875 24.2812 102.287 22.3445C102.691 20.4429 101.485 19.1753 99.5406 19.1753C97.6326 19.1753 95.8512 20.4429 95.447 22.3445C95.0353 24.2812 96.2704 25.5841 98.1784 25.5841Z" fill="#0E293E"></path>
<path d="M118.182 31.8873C112.566 31.8873 109.181 27.6617 110.273 22.5205C111.359 17.4146 116.541 13.189 122.157 13.189C127.773 13.189 131.159 17.4146 130.073 22.5205C128.981 27.6617 123.798 31.8873 118.182 31.8873ZM119.447 25.9362C121.499 25.9362 123.197 24.3868 123.586 22.5557C123.983 20.6894 122.944 19.14 120.892 19.14C118.84 19.14 117.143 20.6894 116.746 22.5557C116.357 24.3868 117.395 25.9362 119.447 25.9362Z" fill="#0E293E"></path>
<path d="M137.746 11.8861C135.622 11.8861 134.225 10.1607 134.667 8.08307C135.108 6.00548 137.239 4.28003 139.363 4.28003C141.487 4.28003 142.884 6.00548 142.443 8.08307C142.001 10.1607 139.87 11.8861 137.746 11.8861ZM134.11 13.7524H140.59L136.847 31.3591H130.367L134.11 13.7524Z" fill="#0E293E"></path>
<path d="M144.497 39.4581H138.017L141.617 22.5205C142.762 17.1329 147.733 13.2242 153.493 13.2242C159.109 13.2242 162.503 17.4146 161.417 22.5205C160.22 28.1547 155.61 31.8873 149.886 31.8873C148.554 31.8873 147.305 31.4999 146.316 30.9013L144.497 39.4581ZM150.791 25.9362C152.843 25.9362 154.541 24.3868 154.93 22.5557C155.326 20.6894 154.28 19.1753 152.228 19.1753C150.176 19.1753 148.486 20.6894 148.09 22.5557C147.701 24.3868 148.739 25.9362 150.791 25.9362Z" fill="#0E293E"></path>
<path d="M168.379 31.9225C164.311 31.9225 161.974 30.5492 160.995 27.8729L166.222 25.3024C166.63 26.4292 167.482 26.9926 169.102 26.9926C170.434 26.9926 171.144 26.5348 171.264 25.9714C171.72 23.8234 161.752 26.0066 163.204 19.1753C163.908 15.8652 167.356 13.189 172.252 13.189C176.536 13.189 178.442 15.2314 179.067 17.2033L173.833 19.8091C173.662 18.7527 172.573 18.1189 171.349 18.1189C170.413 18.1189 169.826 18.5062 169.714 19.0344C169.25 21.2176 179.181 19.2105 177.773 25.8306C176.988 29.528 172.771 31.9225 168.379 31.9225Z" fill="#0E293E"></path>
<path d="M188.332 25.7249C190.42 25.7249 191.717 23.8586 192.188 21.6402L193.865 13.7524H200.345L198.504 22.4149C197.403 27.5912 193.394 31.8873 187.022 31.8873C180.65 31.8873 178.467 27.5912 179.568 22.4149L181.409 13.7524H187.889L186.212 21.6402C185.741 23.8586 186.244 25.7249 188.332 25.7249Z" fill="#0E293E"></path>
<path d="M225.315 13.0481C231.507 13.0481 233.596 17.2737 232.556 22.1684L230.603 31.3591H224.123L225.844 23.26C226.316 21.0416 225.877 19.2105 223.501 19.2105C221.125 19.2105 219.944 21.0416 219.472 23.26L217.751 31.3591H211.271L212.992 23.26C213.464 21.0416 213.061 19.2105 210.685 19.2105C208.309 19.2105 207.092 21.0416 206.62 23.26L204.899 31.3591H198.419L200.372 22.1684C201.412 17.2737 205.299 13.0481 211.491 13.0481C214.875 13.0481 217.046 14.351 217.705 16.4991C219.35 14.351 222.219 13.0481 225.315 13.0481Z" fill="#0E293E"></path>
<path d="M240.758 11.4738C240.758 13.1306 239.415 14.4738 237.758 14.4738C236.101 14.4738 234.758 13.1306 234.758 11.4738C234.758 9.81691 236.101 8.47376 237.758 8.47376C239.415 8.47376 240.758 9.81691 240.758 11.4738Z" fill="#0E293E"></path>
<defs>
<linearGradient id="paint0_linear_5083_7840" x1="33.562" y1="5.112" x2="6.90198" y2="13.828" gradientUnits="userSpaceOnUse">
<stop offset="0.637" stop-color="#F16930"></stop>
<stop offset="0.959" stop-color="#F8C70E"></stop>
</linearGradient>
<linearGradient id="paint1_linear_5083_7840" x1="10.7451" y1="27.73" x2="22.7451" y2="31.23" gradientUnits="userSpaceOnUse">
<stop stop-color="#9BE183"></stop>
<stop offset="1" stop-color="#256B52"></stop>
</linearGradient>
<linearGradient id="paint2_linear_5083_7840" x1="32.5" y1="30" x2="29.6599" y2="22.346" gradientUnits="userSpaceOnUse">
<stop stop-color="#1DC2C6"></stop>
<stop offset="1" stop-color="#23336B"></stop>
</linearGradient>
<linearGradient id="paint3_linear_5083_7840" x1="32.7458" y1="16.387" x2="27" y2="10" gradientUnits="userSpaceOnUse">
<stop offset="0.245" stop-color="#1DC1C5"></stop>
<stop offset="1" stop-color="#9CE182"></stop>
</linearGradient>
</defs>
</svg>